<?xml version="1.0" encoding="UTF-8" standalone="no"?>
<!DOCTYPE svg PUBLIC "-//W3C//DTD SVG 1.1//EN" "http://www.w3.org/Graphics/SVG/1.1/DTD/svg11.dtd">
<svg width="100%" height="100%" viewBox="0 0 101 101" version="1.1" xmlns="http://www.w3.org/2000/svg" xmlns:xlink="http://www.w3.org/1999/xlink" xml:space="preserve" xmlns:serif="http://www.serif.com/" style="fill-rule:evenodd;clip-rule:evenodd;stroke-linejoin:round;stroke-miterlimit:2;">
    <g transform="matrix(1,0,0,1,-1183,-4013)">
        <g transform="matrix(1.25799,0,0,1.0233,2155.2,-52.7538)">
            <g id="anchored" transform="matrix(0.79492,0,0,0.977229,-1156.28,442.388)">
                <path d="M582.961,3631.39L582.961,3696.46C582.961,3706.1 575.142,3713.92 565.496,3713.92L500.426,3713.92C490.78,3713.92 482.961,3706.1 482.961,3696.46L482.961,3631.39C482.961,3621.74 490.78,3613.92 500.426,3613.92L565.496,3613.92C575.142,3613.92 582.961,3621.74 582.961,3631.39ZM538.25,3682.01L538.25,3660C543.259,3658.02 546.806,3653.14 546.806,3647.43C546.806,3639.97 540.751,3633.91 533.293,3633.91C525.836,3633.91 519.781,3639.97 519.781,3647.43C519.781,3653.14 523.328,3658.02 528.336,3660L528.336,3682.19C522.621,3680.69 517.861,3676.48 515.251,3670.85L522.867,3670.85L522.867,3660.94L502.961,3660.94C502.961,3664.39 503.444,3667.72 504.341,3670.85C508.173,3684.22 519.544,3693.93 532.961,3693.93C546.378,3693.93 557.749,3684.22 561.581,3670.85C562.478,3667.72 562.961,3664.39 562.961,3660.94L543.061,3660.94L543.061,3670.85L550.671,3670.85C548.163,3676.26 543.669,3680.36 538.25,3682.01Z" style="fill:rgb(254,242,122);"/>
            </g>
        </g>
    </g>
</svg>
