<?xml version="1.0" encoding="UTF-8" standalone="no"?>
<!DOCTYPE svg PUBLIC "-//W3C//DTD SVG 1.1//EN" "http://www.w3.org/Graphics/SVG/1.1/DTD/svg11.dtd">
<svg width="100%" height="100%" viewBox="0 0 101 101" version="1.1" xmlns="http://www.w3.org/2000/svg" xmlns:xlink="http://www.w3.org/1999/xlink" xml:space="preserve" xmlns:serif="http://www.serif.com/" style="fill-rule:evenodd;clip-rule:evenodd;stroke-linejoin:round;stroke-miterlimit:2;">
    <g transform="matrix(1,0,0,1,-1290,-4013)">
        <g transform="matrix(1.25799,0,0,1.0233,2155.2,-52.7538)">
            <g id="anchored" transform="matrix(0.79492,0,0,0.977229,-1070.91,442.388)">
                <path d="M582.961,3631.39L582.961,3696.46C582.961,3706.1 575.142,3713.92 565.496,3713.92L500.426,3713.92C490.78,3713.92 482.961,3706.1 482.961,3696.46L482.961,3631.39C482.961,3621.74 490.78,3613.92 500.426,3613.92L565.496,3613.92C575.142,3613.92 582.961,3621.74 582.961,3631.39ZM568.964,3691.47L546.797,3636.37L532.961,3662.86L519.125,3636.37L496.959,3691.47L568.964,3691.47Z" style="fill:rgb(254,242,122);"/>
            </g>
        </g>
    </g>
</svg>
