<?xml version="1.0" encoding="UTF-8" standalone="no"?>
<!DOCTYPE svg PUBLIC "-//W3C//DTD SVG 1.1//EN" "http://www.w3.org/Graphics/SVG/1.1/DTD/svg11.dtd">
<svg width="100%" height="100%" viewBox="0 0 101 101" version="1.1" xmlns="http://www.w3.org/2000/svg" xmlns:xlink="http://www.w3.org/1999/xlink" xml:space="preserve" xmlns:serif="http://www.serif.com/" style="fill-rule:evenodd;clip-rule:evenodd;stroke-linejoin:round;stroke-miterlimit:2;">
    <g transform="matrix(1,0,0,1,-1411,-4013)">
        <g transform="matrix(1.25799,0,0,1.0233,2155.2,-52.7538)">
            <g id="anchored" transform="matrix(0.79492,0,0,0.977229,-975.179,442.388)">
                <path d="M582.961,3631.39L582.961,3696.46C582.961,3706.1 575.142,3713.92 565.496,3713.92L500.426,3713.92C490.78,3713.92 482.961,3706.1 482.961,3696.46L482.961,3631.39C482.961,3621.74 490.78,3613.92 500.426,3613.92L565.496,3613.92C575.142,3613.92 582.961,3621.74 582.961,3631.39ZM525.908,3650.23C525.907,3650.23 525.835,3649.72 525.835,3649.72L525.628,3649.25L525.302,3648.86L524.874,3648.57L524.382,3648.41L523.875,3648.39L523.381,3648.51L522.93,3648.76C515.085,3654.72 511.785,3660.75 510.616,3665.81C509.179,3672.03 510.948,3676.85 511.708,3678.52C508.372,3682.13 504.35,3686.97 502.208,3689.59C501.039,3691.01 501.227,3693.11 502.633,3694.31L502.668,3694.34C503.362,3694.93 504.265,3695.23 505.175,3695.15C506.086,3695.07 506.928,3694.64 507.512,3693.94C517.726,3681.77 529.278,3670.42 538.094,3662.26C529.721,3671.79 522.924,3680.4 520.63,3683.36L520.628,3683.36L520.393,3683.76L520.267,3684.2L520.253,3684.66L520.354,3685.11L520.566,3685.52L520.869,3685.87L521.246,3686.12L521.681,3686.28L521.686,3686.28C536.819,3689.66 547.146,3676.13 549.716,3672.28C549.719,3672.28 549.723,3672.27 549.727,3672.26L549.91,3671.89L550.003,3671.49L550.005,3671.07L549.914,3670.67L549.734,3670.29L549.478,3669.97L549.158,3669.71L548.783,3669.53L545.08,3668.21C548.353,3666.53 554.73,3663.26 556.081,3662.57L556.539,3662.24L556.876,3661.78C557.728,3660.16 562.324,3651.27 563.32,3647.36C563.861,3645.24 564.736,3641.89 564.41,3638.99C564.168,3636.84 563.286,3634.93 561.312,3633.77C560.133,3633.08 558.538,3632.66 556.396,3632.68C547.336,3632.76 533.882,3641.2 531.819,3642.53L531.813,3642.53L531.569,3642.73L531.361,3642.95L531.194,3643.21L531.073,3643.5L525.905,3659.09C525.907,3655.97 525.909,3652.34 525.908,3650.23Z" style="fill:rgb(254,242,122);"/>
            </g>
        </g>
    </g>
</svg>
