<?xml version="1.0" encoding="UTF-8" standalone="no"?>
<!DOCTYPE svg PUBLIC "-//W3C//DTD SVG 1.1//EN" "http://www.w3.org/Graphics/SVG/1.1/DTD/svg11.dtd">
<svg width="100%" height="100%" viewBox="0 0 101 101" version="1.1" xmlns="http://www.w3.org/2000/svg" xmlns:xlink="http://www.w3.org/1999/xlink" xml:space="preserve" xmlns:serif="http://www.serif.com/" style="fill-rule:evenodd;clip-rule:evenodd;stroke-linejoin:round;stroke-miterlimit:2;">
    <g transform="matrix(1,0,0,1,-1075,-4013)">
        <g transform="matrix(1.25799,0,0,1.0233,2155.2,-52.7538)">
            <g id="topten" transform="matrix(0.79492,0,0,0.977229,-1242.45,572.913)">
                <path d="M582.961,3497.82L582.961,3562.89C582.961,3572.53 575.142,3580.36 565.496,3580.36L500.426,3580.36C490.78,3580.36 482.961,3572.53 482.961,3562.89L482.961,3497.82C482.961,3488.17 490.78,3480.36 500.426,3480.36L565.496,3480.36C575.142,3480.36 582.961,3488.17 582.961,3497.82ZM546.931,3553.57C549.908,3553.57 552.62,3553.08 555.067,3552.1C557.513,3551.11 559.608,3549.65 561.351,3547.7C563.093,3545.76 564.443,3543.35 565.401,3540.48C566.359,3537.61 566.838,3534.27 566.838,3530.48C566.838,3526.84 566.342,3523.58 565.349,3520.68C564.357,3517.79 562.972,3515.33 561.195,3513.32C559.418,3511.3 557.311,3509.76 554.876,3508.68C552.441,3507.61 549.793,3507.07 546.931,3507.07C544.046,3507.07 541.391,3507.61 538.968,3508.68C536.544,3509.76 534.444,3511.3 532.667,3513.32C530.89,3515.33 529.505,3517.79 528.512,3520.68C527.52,3523.58 527.023,3526.84 527.023,3530.48C527.023,3534.27 527.502,3537.61 528.46,3540.48C529.418,3543.35 530.768,3545.76 532.511,3547.7C534.254,3549.65 536.348,3551.11 538.795,3552.1C541.241,3553.08 543.953,3553.57 546.931,3553.57ZM553.855,3538.64C553.809,3538.96 553.688,3539.18 553.492,3539.3C553.295,3539.41 553.105,3539.47 552.92,3539.47C552.597,3539.47 552.193,3539.32 551.709,3539.02C551.224,3538.72 550.676,3538.29 550.064,3537.74C549.452,3537.18 548.795,3536.5 548.091,3535.69C547.387,3534.88 546.665,3533.96 545.927,3532.94L545.442,3532.28C544.865,3531.49 544.334,3530.71 543.849,3529.92C543.365,3529.13 542.949,3528.39 542.603,3527.7C542.257,3527 541.986,3526.38 541.79,3525.84C541.593,3525.3 541.495,3524.86 541.495,3524.54C541.495,3523.7 541.853,3523.29 542.568,3523.29C542.661,3523.61 542.869,3524.1 543.192,3524.74C543.515,3525.39 543.896,3526.12 544.334,3526.92C544.773,3527.72 545.246,3528.53 545.754,3529.37C546.261,3530.2 546.758,3530.95 547.242,3531.62C547.819,3532.41 548.437,3533.18 549.095,3533.93C549.752,3534.68 550.387,3535.37 550.999,3536C551.61,3536.62 552.17,3537.17 552.678,3537.63C553.186,3538.09 553.578,3538.43 553.855,3538.64ZM506.805,3531.2L506.805,3545.31C506.805,3546.79 507.064,3548.06 507.584,3549.11C508.103,3550.16 508.801,3551.03 509.678,3551.7C510.555,3552.37 511.565,3552.86 512.708,3553.17C513.85,3553.49 515.033,3553.64 516.256,3553.64C517.849,3553.64 519.43,3553.36 520.999,3552.81C522.569,3552.25 523.954,3551.42 525.154,3550.31L525.154,3513.42C525.154,3512.22 525.01,3511.24 524.721,3510.47C524.433,3509.71 524.023,3509.11 523.492,3508.68C522.961,3508.25 522.327,3507.96 521.588,3507.8C520.849,3507.63 520.018,3507.55 519.095,3507.55L512.898,3507.55C512.021,3508.97 511.098,3510.12 510.128,3511.01C509.159,3511.9 508.143,3512.61 507.082,3513.14C506.02,3513.68 504.924,3514.07 503.793,3514.31C502.662,3514.55 501.496,3514.74 500.296,3514.88C499.973,3515.62 499.69,3516.42 499.448,3517.28C499.205,3518.14 499.084,3519.22 499.084,3520.54C499.084,3522.09 499.303,3523.44 499.742,3524.57C500.18,3525.71 500.769,3526.65 501.508,3527.4C502.246,3528.16 503.1,3528.72 504.07,3529.09C505.039,3529.46 506.054,3529.64 507.116,3529.64C508.201,3529.64 509.095,3529.57 509.799,3529.42C510.503,3529.27 511.144,3529.09 511.721,3528.88C511.929,3529.09 512.032,3529.35 512.032,3529.68C512.032,3529.95 511.865,3530.19 511.53,3530.39C511.196,3530.59 510.775,3530.74 510.267,3530.86C509.759,3530.97 509.199,3531.06 508.588,3531.12C507.976,3531.18 507.382,3531.2 506.805,3531.2Z" style="fill:rgb(254,242,122);"/>
            </g>
        </g>
    </g>
</svg>
